<mxfile host="app.diagrams.net" modified="2023-12-27T10:17:08.700Z" agent="Mozilla/5.0 (Macintosh; Intel Mac OS X 10_15_7) AppleWebKit/537.36 (KHTML, like Gecko) Chrome/120.0.0.0 Safari/537.36 Edg/120.0.0.0" etag="KOR86mcDdZ8YJ2RNHIjx" version="22.1.12" type="github">
  <diagram name="传统I/O操作" id="Xiq3m3Y3mkHX4G0rG7n5">
    <mxGraphModel dx="1434" dy="796" grid="1" gridSize="10" guides="1" tooltips="1" connect="1" arrows="1" fold="1" page="1" pageScale="1" pageWidth="4681" pageHeight="3300" math="0" shadow="0">
      <root>
        <mxCell id="0" />
        <mxCell id="1" parent="0" />
        <mxCell id="2hWR_zKDTJNiXYLwZgk8-4" style="edgeStyle=orthogonalEdgeStyle;rounded=0;orthogonalLoop=1;jettySize=auto;html=1;exitX=1;exitY=0.5;exitDx=0;exitDy=0;dashed=1;dashPattern=8 8;fontFamily=Times New Roman;fontSize=18;entryX=0;entryY=0.5;entryDx=0;entryDy=0;" edge="1" parent="1" source="2hWR_zKDTJNiXYLwZgk8-2" target="2hWR_zKDTJNiXYLwZgk8-5">
          <mxGeometry relative="1" as="geometry">
            <mxPoint x="510" y="170" as="targetPoint" />
          </mxGeometry>
        </mxCell>
        <mxCell id="2hWR_zKDTJNiXYLwZgk8-2" value="用户缓冲区" style="rounded=1;whiteSpace=wrap;html=1;fontFamily=Times New Roman;fontSize=18;fillColor=#ffe6cc;strokeColor=#d79b00;" vertex="1" parent="1">
          <mxGeometry x="260" y="140" width="120" height="60" as="geometry" />
        </mxCell>
        <mxCell id="2hWR_zKDTJNiXYLwZgk8-23" style="edgeStyle=orthogonalEdgeStyle;rounded=0;orthogonalLoop=1;jettySize=auto;html=1;exitX=0.5;exitY=1;exitDx=0;exitDy=0;entryX=1;entryY=0.5;entryDx=0;entryDy=0;fontFamily=Times New Roman;fontSize=18;" edge="1" parent="1" source="2hWR_zKDTJNiXYLwZgk8-5" target="2hWR_zKDTJNiXYLwZgk8-10">
          <mxGeometry relative="1" as="geometry" />
        </mxCell>
        <mxCell id="2hWR_zKDTJNiXYLwZgk8-5" value="用户缓冲区" style="rounded=1;whiteSpace=wrap;html=1;fontFamily=Times New Roman;fontSize=18;fillColor=#ffe6cc;strokeColor=#d79b00;" vertex="1" parent="1">
          <mxGeometry x="540" y="140" width="120" height="60" as="geometry" />
        </mxCell>
        <mxCell id="2hWR_zKDTJNiXYLwZgk8-6" value="修改" style="text;html=1;strokeColor=none;fillColor=none;align=center;verticalAlign=middle;whiteSpace=wrap;rounded=0;fontFamily=Times New Roman;fontSize=18;" vertex="1" parent="1">
          <mxGeometry x="430" y="140" width="60" height="30" as="geometry" />
        </mxCell>
        <mxCell id="2hWR_zKDTJNiXYLwZgk8-7" value="" style="shape=link;html=1;rounded=0;fontFamily=Times New Roman;fontSize=18;" edge="1" parent="1">
          <mxGeometry width="100" relative="1" as="geometry">
            <mxPoint x="250" y="240" as="sourcePoint" />
            <mxPoint x="730" y="240" as="targetPoint" />
          </mxGeometry>
        </mxCell>
        <mxCell id="2hWR_zKDTJNiXYLwZgk8-8" value="&lt;font style=&quot;font-size: 16px;&quot;&gt;用户空间&lt;/font&gt;" style="text;html=1;strokeColor=none;fillColor=none;align=center;verticalAlign=middle;whiteSpace=wrap;rounded=0;fontFamily=Times New Roman;fontSize=18;" vertex="1" parent="1">
          <mxGeometry x="660" y="200" width="80" height="30" as="geometry" />
        </mxCell>
        <mxCell id="2hWR_zKDTJNiXYLwZgk8-9" value="内核空间" style="text;html=1;strokeColor=none;fillColor=none;align=center;verticalAlign=middle;whiteSpace=wrap;rounded=0;fontFamily=Times New Roman;fontSize=16;" vertex="1" parent="1">
          <mxGeometry x="660" y="250" width="80" height="30" as="geometry" />
        </mxCell>
        <mxCell id="2hWR_zKDTJNiXYLwZgk8-10" value="页缓存区域" style="rounded=0;whiteSpace=wrap;html=1;fillColor=#dae8fc;strokeColor=#6c8ebf;fontFamily=Times New Roman;fontSize=18;" vertex="1" parent="1">
          <mxGeometry x="390" y="310" width="120" height="60" as="geometry" />
        </mxCell>
        <mxCell id="2hWR_zKDTJNiXYLwZgk8-12" value="" style="image;aspect=fixed;html=1;points=[];align=center;fontSize=18;image=img/lib/azure2/general/File.svg;fontFamily=Times New Roman;" vertex="1" parent="1">
          <mxGeometry x="420.06" y="435.21" width="59.88" height="73.79" as="geometry" />
        </mxCell>
        <mxCell id="2hWR_zKDTJNiXYLwZgk8-13" value="" style="endArrow=classic;startArrow=classic;html=1;rounded=0;fontFamily=Times New Roman;fontSize=18;" edge="1" parent="1">
          <mxGeometry width="50" height="50" relative="1" as="geometry">
            <mxPoint x="450" y="431" as="sourcePoint" />
            <mxPoint x="449.5" y="371" as="targetPoint" />
          </mxGeometry>
        </mxCell>
        <mxCell id="2hWR_zKDTJNiXYLwZgk8-14" value="&lt;font style=&quot;font-size: 18px;&quot;&gt;① read函数一次拷贝&lt;br style=&quot;font-size: 18px;&quot;&gt;&lt;/font&gt;" style="text;html=1;strokeColor=none;fillColor=none;align=center;verticalAlign=middle;whiteSpace=wrap;rounded=0;fontFamily=Times New Roman;fontSize=18;" vertex="1" parent="1">
          <mxGeometry x="320" y="390" width="120" height="30" as="geometry" />
        </mxCell>
        <mxCell id="2hWR_zKDTJNiXYLwZgk8-17" value="⑤ 写回磁盘 2次拷贝" style="text;html=1;strokeColor=none;fillColor=none;align=center;verticalAlign=middle;whiteSpace=wrap;rounded=0;fontFamily=Times New Roman;fontSize=18;" vertex="1" parent="1">
          <mxGeometry x="470" y="390" width="100" height="30" as="geometry" />
        </mxCell>
        <mxCell id="2hWR_zKDTJNiXYLwZgk8-19" style="edgeStyle=orthogonalEdgeStyle;rounded=0;orthogonalLoop=1;jettySize=auto;html=1;exitX=0;exitY=0.5;exitDx=0;exitDy=0;entryX=0.442;entryY=1.067;entryDx=0;entryDy=0;entryPerimeter=0;fontFamily=Times New Roman;fontSize=18;" edge="1" parent="1" source="2hWR_zKDTJNiXYLwZgk8-10" target="2hWR_zKDTJNiXYLwZgk8-2">
          <mxGeometry relative="1" as="geometry" />
        </mxCell>
        <mxCell id="2hWR_zKDTJNiXYLwZgk8-21" value="&lt;font style=&quot;font-size: 16px;&quot;&gt;② 2次拷贝&lt;/font&gt;" style="text;html=1;strokeColor=none;fillColor=none;align=center;verticalAlign=middle;whiteSpace=wrap;rounded=0;fontFamily=Times New Roman;fontSize=18;" vertex="1" parent="1">
          <mxGeometry x="210" y="310" width="100" height="30" as="geometry" />
        </mxCell>
        <mxCell id="2hWR_zKDTJNiXYLwZgk8-24" value="④ write函数&lt;br style=&quot;font-size: 16px;&quot;&gt;一次拷贝" style="text;html=1;strokeColor=none;fillColor=none;align=center;verticalAlign=middle;whiteSpace=wrap;rounded=0;fontFamily=Times New Roman;fontSize=16;" vertex="1" parent="1">
          <mxGeometry x="590" y="320" width="140" height="20" as="geometry" />
        </mxCell>
        <mxCell id="2hWR_zKDTJNiXYLwZgk8-25" value="③" style="text;html=1;strokeColor=none;fillColor=none;align=center;verticalAlign=middle;whiteSpace=wrap;rounded=0;fontFamily=Times New Roman;fontSize=18;" vertex="1" parent="1">
          <mxGeometry x="430" y="170" width="60" height="30" as="geometry" />
        </mxCell>
      </root>
    </mxGraphModel>
  </diagram>
</mxfile>
